<?xml version="1.0" encoding="utf-8"?>
<!-- Generator: Adobe Illustrator 27.5.0, SVG Export Plug-In . SVG Version: 6.00 Build 0)  -->
<svg version="1.1" id="Layer_1" xmlns="http://www.w3.org/2000/svg" xmlns:xlink="http://www.w3.org/1999/xlink" x="0px" y="0px"
	 viewBox="0 0 2531.244 2000" style="enable-background:new 0 0 2531.244 2000;" xml:space="preserve">
<g>
	<rect x="-0.001" y="-0.001" style="fill:#FFFFFF;" width="2531.245" height="2000"/>
	<g>
		<g>
			<path style="opacity:0.5;fill:#B0CFF4;" d="M2158.029,1856.335c78.598-130.958,198.87-387.648,208.223-549.513
				c13.823-239.278-135.98-198.393-245.359-322.598c-47.704-54.17,89.841-230.952-113.51-372.522
				c-126.164-87.833-303.744,87.331-408.398-131.724c-107.253-224.496-520.05-303.046-855.524-175.147
				c-511.329,194.941,13.206,385.764-319.433,540.008c-199.013,92.282-104.558,293.125-84.67,358.448
				c17.321,56.894,115.179,124.205-27.345,271.411c-118.658,122.557-25.671,319.212,8.798,381.637H2158.029z"/>
			<path style="fill:#F7CC7F;" d="M219.021,1846.572H2329.32c4.607,0,8.342,6.137,8.342,13.705s-3.734,13.703-8.342,13.703H219.021
				c-4.607,0-8.342-6.135-8.342-13.703S214.414,1846.572,219.021,1846.572z"/>
		</g>
		<g>
			<g>
				<g>
					<polygon style="fill:#50BFA5;" points="930.436,345.713 937.092,328.831 924.326,315.46 933.128,297.06 915.12,287.011 
						924.155,265.766 908.72,254.471 914.067,232.621 922.353,234.62 918.355,250.958 934.642,262.876 925.956,283.299 
						944.267,293.516 934.553,313.821 947.019,326.878 940.851,342.526 950.839,349.388 945.991,356.4 					"/>
					<path style="fill:#F7CC7F;" d="M358.603,1261.377l-7.975-20.636l-21.521-5.13c-2.451-0.584-3.168-3.727-1.213-5.316
						l17.162-13.961l-1.771-22.053c-0.202-2.512,2.564-4.165,4.681-2.797l18.582,12.008l20.425-8.5
						c2.327-0.967,4.754,1.153,4.107,3.589l-5.679,21.382l14.395,16.8c1.64,1.914,0.374,4.876-2.143,5.014l-22.09,1.207
						l-11.53,18.883C362.72,1264.017,359.511,1263.729,358.603,1261.377z"/>
					<g>
						<path style="fill:#F7CC7F;" d="M482.078,1002.713c-10.779-5.926-14.714-19.468-8.79-30.248
							c5.926-10.779,19.469-14.714,30.249-8.79c10.78,5.926,14.714,19.468,8.789,30.249
							C506.4,1004.703,492.858,1008.638,482.078,1002.713z"/>
						<g>
							<path style="fill:#F7CC7F;" d="M555.408,1004.994c-6.153-2.379-12.404-5.446-18.833-6.964
								c-5.53-1.304-8.677,6.608-3.612,9.365c6.203,3.376,13.398,5.392,19.998,7.884c2.673,1.01,5.765-1.396,6.367-3.919
								C560.065,1008.277,558.082,1006.028,555.408,1004.994L555.408,1004.994z"/>
						</g>
						<g>
							<path style="fill:#F7CC7F;" d="M552.866,957.962c-7.655,3.853-15.672,6.343-23.687,9.286
								c-6.261,2.298-3.547,10.867,2.839,9.774c9.173-1.57,18.149-5.607,26.41-9.764c2.614-1.315,3.29-5.048,1.867-7.429
								C558.699,957.161,555.486,956.645,552.866,957.962L552.866,957.962z"/>
						</g>
						<g>
							<path style="fill:#F7CC7F;" d="M511.772,948.139c0.224,2.13,1.662,3.454,3.794,3.6c5.159,0.351,8.4-5.099,10.708-8.966
								c2.407-4.035,4.146-8.501,5.275-13.056c1.669-6.731-8.823-9.254-10.497-2.497
								C517.777,940.434,511.123,941.951,511.772,948.139z"/>
						</g>
						<g>
							<path style="fill:#F7CC7F;" d="M471.517,930.662c4.466,10.584,4.292,16.771,9.128,18.903
								c2.827,1.247,5.359,0.006,6.392-2.833c1.221-3.355-0.857-6.948-1.907-10.107c-1.006-3.028-2.038-6.027-3.296-8.963
								c-1.141-2.663-3.632-4.538-6.657-3.659C472.641,924.741,470.382,927.974,471.517,930.662L471.517,930.662z"/>
						</g>
						<g>
							<path style="fill:#F7CC7F;" d="M456.465,951.01c-5.956-1.369-7.96-2.118-11.661-1.304c-3.217,0.708-4.641,5.658-1.941,7.784
								c3.148,2.479,4.847,2.579,11.105,4.016c2.838,0.653,5.817-1.15,6.498-4C461.139,954.682,459.314,951.664,456.465,951.01
								L456.465,951.01z"/>
						</g>
						<g>
							<path style="fill:#F7CC7F;" d="M453.397,981.476c-11.028,4.015-13.739,4.531-15.4,7.827
								c-0.974,1.933-0.544,5.083,1.743,5.996c4.246,1.696,6.684,0.16,16.606-3.673c2.661-1.028,4.445-3.644,3.6-6.55
								C459.19,982.472,456.09,980.495,453.397,981.476L453.397,981.476z"/>
						</g>
						<g>
							<path style="fill:#F7CC7F;" d="M460.444,1030.654c-0.35,4.154,5.804,6.355,8.401,3.284c2.49-2.944,2.772-4.518,9.965-21.951
								c1.111-2.692,0.629-5.809-2.129-7.324c-2.339-1.286-6.2-0.58-7.324,2.128
								C461.852,1024.873,460.796,1026.486,460.444,1030.654z"/>
						</g>
						<g>
							<path style="fill:#F7CC7F;" d="M501.696,1022.64c2.771,13.877,0.504,14.189,3.39,20.821c1.32,3.033,6.647,2.86,7.885-0.145
								c1.588-3.857,1.603-5.158,0.935-11.949c-0.389-3.946-1-7.873-1.768-11.762c-0.568-2.883-4.093-4.473-6.738-3.704
								C502.376,1016.779,501.119,1019.751,501.696,1022.64L501.696,1022.64z"/>
						</g>
					</g>
					<polygon style="fill:#86B1F2;" points="426.612,1392.942 408.161,1403.413 414.098,1417.954 396.251,1428.919 
						399.848,1443.854 387.507,1453.806 391.753,1458.531 408.259,1445.222 404.851,1431.068 423.416,1419.661 417.577,1405.36 
						434.299,1395.871 					"/>
					<g>
						<path style="fill:#F48C7F;" d="M687.016,372.151c0,0-2.598-9.387,4.452-18.319c6.286-7.965,16.949-8.458,24.32-2.64
							c8.533,6.735,12.724,22.186,6.168,48.537c-24.106,12.498-40.108,12.012-48.642,5.276c-7.372-5.819-9.37-16.303-3.084-24.268
							C677.282,371.805,687.016,372.151,687.016,372.151z"/>
						<g>
							<path style="fill:#F48C7F;" d="M638.416,440.651c7.363-6.745,12.94-12.54,18.15-18.496c1.717-1.964,5.278-4.861,4.783-7.696
								c-0.258-1.473-1.225-2.515-2.807-2.505c-2.898,0.02-4.844,3.538-6.576,5.516c-5.282,6.029-11.543,12.6-18.256,18.875
								c-1.258,1.176-1.001,3.406,0.199,4.506C635.274,442.101,637.142,441.818,638.416,440.651L638.416,440.651z"/>
						</g>
						<g>
							<path style="fill:#F48C7F;" d="M742.074,353.599c2.575-2.841,5.095-5.729,7.626-8.61c2.42-2.757,5.764-5.59,7.116-9.027
								c0.996-2.536-1.406-4.96-3.914-3.57c-3.243,1.797-5.586,5.429-8.003,8.2c-2.523,2.89-5.053,5.772-7.529,8.7
								C734.723,352.419,739.307,356.653,742.074,353.599L742.074,353.599z"/>
						</g>
						<g>
							<path style="fill:#F48C7F;" d="M699.47,447.241c-2.882-8.947-0.877-14.99-0.243-20.396c0.338-2.891-3.194-4.235-4.785-1.729
								c-4.361,6.867-3.465,16.741-1.008,24.103C694.727,453.094,700.728,451.144,699.47,447.241L699.47,447.241z"/>
						</g>
						<g>
							<path style="fill:#F48C7F;" d="M743.878,427.456c-3.071-2.506-5.578-5.516-7.385-9.053c-1.105-2.165-2.815-9.762-6.681-7.166
								c-3.64,2.445,0.08,8.768,1.62,11.475c2.063,3.627,4.865,6.864,8.121,9.468C742.756,434.742,747.082,430.07,743.878,427.456
								L743.878,427.456z"/>
						</g>
						<g>
							<path style="fill:#F48C7F;" d="M747.28,387.108c2.57-0.574,5.141-1.15,7.71-1.725c2.565-0.573,5.599-0.615,7.026-3.099
								c0.803-1.397,0.024-2.906-1.165-3.714c-2.158-1.466-5.556,0.069-7.894,0.607c-2.566,0.589-5.131,1.179-7.696,1.769
								c-1.707,0.393-2.582,2.535-2.073,4.091C743.778,386.832,745.565,387.492,747.28,387.108L747.28,387.108z"/>
						</g>
						<g>
							<path style="fill:#F48C7F;" d="M651.946,376.375c-20.074-6.856-20.043-7.041-22.339-6.875
								c-2.354,0.169-3.553,3.226-1.728,4.847c1.805,1.603,1.536,1.309,22.685,8.443c1.682,0.567,3.556-0.922,3.899-2.515
								C654.873,378.373,653.631,376.95,651.946,376.375L651.946,376.375z"/>
						</g>
						<g>
							<path style="fill:#F48C7F;" d="M674.929,350.007c-1.596-3.11-3.506-6.014-5.726-8.715c-2.063-2.509-4.888-6.634-8.534-5.877
								c-0.783,0.163-1.567,1.069-1.666,1.849c-0.416,3.266,3.232,5.729,5.125,8.052c2.065,2.533,3.86,5.29,5.464,8.135
								c0.843,1.496,3.01,1.838,4.391,0.947C675.543,353.391,675.714,351.538,674.929,350.007L674.929,350.007z"/>
						</g>
						<g>
							<path style="fill:#F48C7F;" d="M710.005,315.115c-0.741-1.416-2.594-1.45-3.823-0.824c-2.532,1.289-2.907,5.584-3.393,8.115
								c-0.567,2.948-0.836,5.927-0.922,8.926c-0.05,1.73,1.758,3.107,3.379,3.017c1.899-0.107,2.905-1.646,3.017-3.379
								C708.991,319.656,711.833,318.611,710.005,315.115z"/>
						</g>
					</g>
					<polygon style="fill:#F7CC7F;" points="471.152,657.887 496.406,678.84 486.597,710.793 478.233,708.226 486.329,681.85 
						460.24,660.201 477.077,626.205 457.96,613.953 463.294,606.979 488.397,623.066 					"/>
					<path style="fill:#86B1F2;" d="M316.965,881.642c14.002,11.748,36.325,3.659,44.461-11.078
						c8.994-16.292,4.715-37.776-9.157-49.934c-15.015-13.159-34.718-11.73-45.87,2.922c-10.857,14.264-3.669,32.486,12.62,36.833
						c11.68,3.117,20.973-3.394,21.166-9.562c0.151-4.807-5.23-7.976-8.86-4.373c-1.455,1.443-1.633,3.781-0.917,5.508
						c-3.825,2.736-12.768,1.926-18.464-5.098c-7.277-8.972-0.296-20.979,8.672-25.455c11.415-5.697,24.145,0.447,31.368,9.88
						c7.584,9.905,9.12,24.603,3.076,35.639c-6.847,12.501-22.782,17.123-35.306,10.413
						C316.799,875.753,314.459,879.539,316.965,881.642z"/>
					<polygon style="fill:#96D9C9;" points="676.504,632.728 690.982,673.822 730.636,630.907 					"/>
					<g>
						<g>
							<path style="fill:#F7CC7F;" d="M875.562,553.921c6.779,21.759,29.907,33.9,51.662,27.119
								c21.754-6.781,33.894-29.916,27.116-51.674c-6.776-21.757-29.907-33.899-51.662-27.119
								C880.924,509.028,868.783,532.163,875.562,553.921z"/>
							<path style="fill:#EFEFEF;" d="M937.954,541.32c3.624,11.633-2.869,24.003-14.498,27.628
								c-11.63,3.626-23.997-2.866-27.621-14.5L937.954,541.32z"/>
						</g>
					</g>
				</g>
				<polygon style="fill:#466EB6;" points="1214.506,209.09 1219.708,222.357 1199.287,233.087 1204.502,253.423 1190.533,263.951 
					1195.862,271.023 1214.547,256.941 1209.604,237.67 1230.849,226.507 1223.02,206.544 				"/>
				<g>
					<path style="fill:#96D9C9;" d="M1706.211,535.415l4.299-10.67c-4.733-2.159-9.097-4.971-12.481-7.816
						c-2.826-2.375-3.321-6.536-1.135-9.509l0.264-0.358c2.409-3.276,7.109-3.836,10.186-1.177c3.137,2.71,6.943,5.238,11.338,7.009
						c6.402,2.58,11.779,1.873,13.59-2.619c1.72-4.268-0.789-8.413-7.969-14.57c-10.389-8.885-16.325-17.806-11.935-28.7
						c3.983-9.884,14.07-14.828,27.038-12.344l4.3-10.67l11.008,4.436l-3.983,9.884c4.01,1.829,7.146,3.728,9.652,5.608
						c3.063,2.298,3.68,6.647,1.411,9.73l0,0c-2.347,3.189-6.871,3.807-9.976,1.349c-2.326-1.842-5.339-3.778-9.303-5.375
						c-7.301-2.942-10.926-0.748-12.193,2.397c-1.494,3.707,1.487,7.649,9.586,15.091c11.465,10.103,14.366,18.453,10.293,28.561
						c-4.028,9.997-14.544,15.682-28.366,12.722l-4.616,11.457L1706.211,535.415z"/>
				</g>
				<path style="fill:#86B1F2;" d="M751.531,889.94c1.335,2.162,0.953,4.965-0.912,6.69c-3.659,3.383-9.488,7.338-16.586,10.003
					c-10.382,3.896-21.907,4.273-32.292-0.444c-6.49-2.948-12.431-8.257-16.622-15.118l-6.135,2.303
					c-2.085,0.782-4.41-0.274-5.192-2.359l-0.06-0.158c-0.783-2.085,0.273-4.41,2.358-5.192l5.034-1.89
					c-0.808-1.671-1.377-2.713-1.732-3.657c-0.591-1.572-1.141-3.519-1.595-5.684l-5.191,1.949c-2.085,0.782-4.41-0.274-5.192-2.358
					l0,0c-0.783-2.085,0.273-4.41,2.358-5.193l6.293-2.362c-0.986-7.886,0.055-15.634,3.002-22.125
					c5.012-11.034,14.449-18.884,25.304-22.958c6.328-2.375,11.532-3.077,15.743-3.122c2.928-0.031,5.354,2.259,5.492,5.184
					l0.004,0.092c0.143,3.032-2.225,5.571-5.257,5.691c-3.449,0.138-7.523,0.825-12.242,2.597
					c-6.922,2.598-13.017,7.398-16.516,14.813c-1.967,4.328-2.889,9.52-1.845,14.692l35.396-13.286
					c2.085-0.783,4.41,0.273,5.192,2.358l0,0c0.783,2.085-0.273,4.41-2.358,5.192l-36.969,13.876c0.491,1.79,0.983,3.58,1.397,4.681
					c0.531,1.416,1.062,2.831,1.928,4.66l37.048-13.905c2.128-0.8,4.503,0.278,5.301,2.408l0,0c0.799,2.128-0.279,4.502-2.408,5.301
					l-35.475,13.315c2.813,4.148,6.491,7.254,10.387,9.023c7.731,3.38,14.849,3.222,22.714,0.27c4.795-1.8,8.784-4.27,11.814-6.66
					C746.213,886.6,749.862,887.238,751.531,889.94L751.531,889.94z"/>
				<path style="fill:#F7CC7F;" d="M1581.101,357.406l3.065-15.19l14.249-6.086c1.623-0.693,1.747-2.947,0.21-3.814l-13.5-7.608
					l-1.385-15.433c-0.157-1.758-2.263-2.572-3.562-1.377l-11.407,10.487l-15.107-3.452c-1.72-0.392-3.145,1.358-2.41,2.963
					l6.448,14.09l-7.95,13.3c-0.906,1.515,0.319,3.411,2.072,3.208l15.393-1.78l10.193,11.672
					C1578.57,359.715,1580.752,359.136,1581.101,357.406z"/>
				<path style="fill:#F7CC7F;" d="M1434.365,240.001l-1.567-10.785l7.997-7.404c0.911-0.843,0.459-2.364-0.764-2.575l-10.741-1.843
					l-4.57-9.894c-0.521-1.127-2.107-1.168-2.686-0.069l-5.072,9.646l-10.822,1.29c-1.232,0.146-1.762,1.643-0.896,2.532
					l7.606,7.805l-2.117,10.691c-0.241,1.218,1.019,2.183,2.131,1.634l9.774-4.822l9.513,5.317
					C1433.235,242.129,1434.543,241.23,1434.365,240.001z"/>
				<path style="fill:#F7CC7F;" d="M1125.318,356.008l-1.565-10.785l7.997-7.404c0.911-0.843,0.459-2.365-0.765-2.575l-10.741-1.843
					l-4.571-9.893c-0.521-1.127-2.107-1.168-2.685-0.069l-5.072,9.646l-10.822,1.29c-1.232,0.146-1.762,1.643-0.895,2.532
					l7.606,7.805l-2.118,10.69c-0.241,1.218,1.019,2.183,2.132,1.634l9.774-4.822l9.513,5.317
					C1124.189,358.136,1125.497,357.236,1125.318,356.008z"/>
			</g>
			<g>
				<g>
					<g>
						<path style="fill:#F7F7F7;" d="M1511.559,506.186l-6.736-6.73c-1.219-1.218-3.194-1.217-4.413,0.002l-6.729,6.736
							c-1.218,1.219-3.194,1.22-4.413,0.002l-6.736-6.73c-1.22-1.218-3.195-1.217-4.414,0.002l-6.729,6.735
							c-1.218,1.22-3.193,1.22-4.413,0.002l-6.736-6.73c-1.219-1.218-3.195-1.218-4.413,0.002l-6.729,6.735
							c-1.219,1.219-3.194,1.22-4.414,0.002l-6.736-6.73c-1.219-1.218-3.194-1.217-4.413,0.002l-6.729,6.735
							c-1.218,1.219-3.194,1.22-4.413,0.002l-6.736-6.73c-1.22-1.218-3.195-1.217-4.414,0.002l-6.729,6.735
							c-1.218,1.22-3.193,1.22-4.413,0.002l-6.736-6.729c-1.219-1.218-3.195-1.218-4.413,0.002l-6.729,6.735
							c-1.219,1.219-3.194,1.22-4.414,0.002l-6.736-6.729c-1.219-1.219-3.195-1.218-4.413,0.002l-6.729,6.735
							c-1.218,1.219-3.194,1.22-4.413,0.002l-6.736-6.73c-1.22-1.218-3.195-1.217-4.413,0.002l-6.73,6.735
							c-1.218,1.22-3.193,1.221-4.413,0.002l-6.736-6.729c-1.22-1.218-3.195-1.217-4.413,0.002l-6.73,6.735
							c-1.218,1.22-3.194,1.22-4.413,0.002l-6.736-6.73c-1.219-1.219-3.194-1.218-4.413,0.002l-6.73,6.735
							c-1.218,1.219-3.193,1.22-4.413,0.003l-6.735-6.73c-1.22-1.218-3.195-1.217-4.414,0.001l-6.729,6.736
							c-1.219,1.219-3.194,1.22-4.414,0.001l-6.736-6.729c-1.219-1.218-3.195-1.217-4.414,0.002l-6.73,6.735
							c-1.218,1.219-3.194,1.22-4.413,0.002l-6.736-6.729c-1.219-1.219-3.195-1.217-4.414,0.002l-6.73,6.735
							c-1.218,1.219-3.194,1.22-4.414,0.002l-6.735-6.729c-1.22-1.219-3.195-1.218-4.414,0.001l-6.729,6.736
							c-1.218,1.219-3.194,1.22-4.414,0.002l-6.736-6.73c-1.219-1.218-3.195-1.217-4.414,0.002l-6.73,6.735
							c-1.218,1.22-3.194,1.221-4.413,0.002l-6.736-6.729c-1.219-1.218-3.195-1.217-4.414,0.002l-6.73,6.735
							c-1.218,1.219-3.194,1.22-4.414,0.002l-6.736-6.729c-1.219-1.219-3.195-1.218-4.413,0.001l-6.73,6.735
							c-1.218,1.219-3.194,1.22-4.414,0.002l-6.736-6.73c-1.219-1.218-3.195-1.217-4.413,0.002l-6.73,6.736
							c-1.218,1.219-3.194,1.22-4.413,0.001l-6.736-6.729c-1.219-1.218-3.195-1.218-4.413,0.001l0,0
							c-0.581,0.582-0.91,1.37-0.913,2.192l-2.456,542.747l427.27,1.308l1.866-548.634l0,0l-8.936,8.943
							C1514.754,507.403,1512.778,507.404,1511.559,506.186z"/>
					</g>
					
						<rect x="1095.773" y="1035.079" transform="matrix(-1 4.252595e-04 -4.252595e-04 -1 2619.2588 2090.1003)" style="fill:#E3E3E3;" width="427.269" height="20.499"/>
					<path style="fill:#D4D4D4;" d="M1186.926,971.846l248.408-0.106c6.987-0.003,12.655,5.66,12.658,12.648l0,0
						c0.003,6.988-5.659,12.656-12.648,12.659l-248.407,0.106c-6.988,0.003-12.656-5.66-12.659-12.648l0,0
						C1174.275,977.517,1179.938,971.85,1186.926,971.846z"/>
					<path style="fill:#E0E0E0;" d="M1315.07,920.116l167.889-0.072c4.852-0.002,8.787,3.93,8.789,8.782l0,0
						c0.002,4.852-3.93,8.787-8.781,8.789l-167.889,0.071c-4.852,0.002-8.787-3.929-8.789-8.781l0,0
						C1306.287,924.053,1310.219,920.118,1315.07,920.116z"/>
					<path style="fill:#E0E0E0;" d="M1315.05,871.718l167.889-0.071c4.852-0.002,8.786,3.93,8.789,8.781l0,0
						c0.002,4.852-3.93,8.787-8.782,8.789l-167.888,0.071c-4.853,0.002-8.787-3.929-8.789-8.781l0,0
						C1306.267,875.655,1310.198,871.721,1315.05,871.718z"/>
					<path style="fill:#E0E0E0;" d="M1315.031,828.328l167.889-0.071c4.852-0.003,8.787,3.929,8.789,8.781l0,0
						c0.002,4.852-3.93,8.787-8.781,8.789l-167.889,0.071c-4.852,0.002-8.787-3.929-8.789-8.781l0,0
						C1306.248,832.265,1310.18,828.33,1315.031,828.328z"/>
					<path style="fill:#E0E0E0;" d="M1211.497,762.065l197.679-0.084c3.505-0.001,6.348,2.839,6.349,6.344l0,0
						c0.002,3.505-2.839,6.348-6.344,6.349l-197.679,0.084c-3.505,0.001-6.348-2.839-6.349-6.343l0,0
						C1205.152,764.909,1207.992,762.066,1211.497,762.065z"/>
					<path style="fill:#E0E0E0;" d="M1169.291,736.766l282.07-0.12c3.505-0.001,6.348,2.839,6.349,6.344l0,0
						c0.002,3.505-2.839,6.347-6.344,6.349l-282.069,0.12c-3.505,0.001-6.348-2.839-6.349-6.344l0,0
						C1162.945,739.609,1165.786,736.767,1169.291,736.766z"/>
					<path style="fill:#E0E0E0;" d="M1139.257,920.19l46.045-0.02c4.852-0.002,8.787,3.93,8.789,8.782l0,0
						c0.002,4.852-3.93,8.787-8.781,8.789l-46.045,0.02c-4.852,0.002-8.787-3.93-8.789-8.781l0,0
						C1130.473,924.128,1134.405,920.193,1139.257,920.19z"/>
					<path style="fill:#E0E0E0;" d="M1139.236,871.794l46.045-0.02c4.852-0.002,8.787,3.93,8.789,8.781l0,0
						c0.002,4.852-3.93,8.787-8.782,8.789l-46.045,0.019c-4.852,0.002-8.787-3.929-8.789-8.781l0,0
						C1130.453,875.73,1134.384,871.795,1139.236,871.794z"/>
					<path style="fill:#E0E0E0;" d="M1139.218,828.402l46.045-0.02c4.852-0.002,8.787,3.929,8.789,8.781l0,0
						c0.002,4.852-3.93,8.787-8.781,8.789l-46.045,0.02c-4.852,0.002-8.787-3.93-8.789-8.781l0,0
						C1130.435,832.339,1134.366,828.404,1139.218,828.402z"/>
					<path style="fill:#D4D4D4;" d="M1146.365,674.903l329.244-0.14c8.845-0.004,16.018,7.163,16.021,16.007l0,0
						c0.003,8.845-7.163,16.018-16.008,16.021l-329.244,0.141c-8.844,0.003-16.017-7.163-16.021-16.008l0,0
						C1130.354,682.08,1137.521,674.907,1146.365,674.903z"/>
					<path style="fill:#D4D4D4;" d="M1224.027,623.545l173.865-0.073c5.477-0.003,9.918,4.435,9.92,9.911l0,0
						c0.003,5.477-4.436,9.918-9.911,9.92l-173.865,0.074c-5.477,0.002-9.918-4.436-9.92-9.912l0,0
						C1214.113,627.989,1218.55,623.547,1224.027,623.545z"/>
				</g>
				<path style="fill:#9BC1F9;" d="M1559.818,1856.319l-498.6,0.212c-30.289,0.013-54.853-24.53-54.866-54.819l-0.315-740.849
					c-0.013-30.288,24.53-54.852,54.819-54.865l498.6-0.212c30.289-0.013,54.854,24.53,54.866,54.819l0.314,740.848
					C1614.65,1831.742,1590.107,1856.307,1559.818,1856.319z"/>
				<path style="fill:#ABABAB;" d="M1595.153,1019.283c8.312,9.609,13.521,21.98,13.527,35.684l0.314,740.849
					c0.013,30.289-24.529,54.852-54.819,54.865l-498.599,0.212c-13.704,0.006-26.079-5.193-35.696-13.497
					c10.062,11.631,24.752,19.143,41.338,19.136l498.601-0.212c30.288-0.014,54.832-24.578,54.819-54.866l-0.315-740.848
					C1614.316,1044.019,1606.792,1029.335,1595.153,1019.283z"/>
				<g>
					<path style="fill:#82A2D1;" d="M1538.591,1352.355l-456.515,0.027c-8.415,0-15.236-6.82-15.237-15.234l-0.015-251.961
						c0-8.414,6.82-15.236,15.235-15.236l456.515-0.027c8.414,0,15.236,6.82,15.236,15.235l0.015,251.96
						C1553.826,1345.533,1547.005,1352.355,1538.591,1352.355z"/>
					<path style="fill:#638AC2;" d="M1070.179,1340.115l-0.015-251.96c-0.001-8.414,6.82-15.236,15.234-15.236l456.515-0.026
						c3.083,0,5.947,0.922,8.346,2.496c-2.795-3.339-6.99-5.465-11.685-5.465l-456.515,0.027c-8.415,0-15.235,6.822-15.235,15.236
						l0.015,251.961c0,5.331,2.744,10.016,6.891,12.737C1071.516,1347.241,1070.179,1343.836,1070.179,1340.115z"/>
					<path style="fill:#3F7885;" d="M1483.236,1200.131l-345.824,0.02c-10.142,0.001-18.364-8.221-18.365-18.362l-0.004-58.987
						c0-10.142,8.221-18.363,18.363-18.364l345.824-0.021c10.143,0,18.364,8.221,18.365,18.363l0.003,58.986
						C1501.6,1191.908,1493.378,1200.13,1483.236,1200.131z"/>
					<path style="fill:#33464A;" d="M1122.14,1184.88l-0.003-58.987c0-10.142,8.22-18.364,18.363-18.364l345.823-0.021
						c4.283,0,8.221,1.47,11.345,3.928c-3.363-4.272-8.577-7.02-14.437-7.02l-345.824,0.021
						c-10.142,0.001-18.363,8.223-18.362,18.364l0.003,58.987c0,5.859,2.748,11.073,7.021,14.435
						C1123.61,1193.1,1122.14,1189.162,1122.14,1184.88z"/>
					<g>
						<g>
							<g>
								<path style="fill:#C2C2C2;" d="M1194.938,1458.524l-101.152,0.046c-8.14,0.003-14.741-6.593-14.745-14.732l-0.017-44.412
									c-0.004-8.14,6.592-14.74,14.731-14.744l101.151-0.045c8.14-0.004,14.741,6.592,14.745,14.731l0.018,44.412
									C1209.672,1451.92,1203.077,1458.521,1194.938,1458.524z"/>
								<path style="fill:#5A818C;" d="M1189.697,1453.011l-101.152,0.046c-8.14,0.004-14.741-6.593-14.745-14.732l-0.018-44.412
									c-0.003-8.139,6.592-14.74,14.731-14.744l101.151-0.045c8.14-0.004,14.741,6.592,14.745,14.732l0.018,44.412
									C1204.432,1446.406,1197.836,1453.008,1189.697,1453.011z"/>
								<path style="fill:#3B3B3B;" d="M1078.977,1443.385l-0.018-43.641c-0.003-8.353,6.425-15.127,14.355-15.13l101.905-0.046
									c2.622-0.001,4.947,0.94,7.065,2.232c-2.487-4.508-6.934-7.681-12.242-7.678l-101.902,0.045
									c-7.933,0.004-14.359,6.778-14.356,15.131l0.018,43.64c0.002,5.59,3.018,10.27,7.302,12.885
									C1079.875,1448.595,1078.978,1446.147,1078.977,1443.385z"/>
							</g>
							<g>
								<path style="fill:#C2C2C2;" d="M1194.979,1563.677l-101.151,0.045c-8.14,0.004-14.741-6.592-14.745-14.731l-0.018-44.412
									c-0.003-8.14,6.592-14.74,14.731-14.744l101.152-0.045c8.14-0.004,14.741,6.592,14.745,14.731l0.018,44.412
									C1209.714,1557.072,1203.119,1563.673,1194.979,1563.677z"/>
								<path style="fill:#5A818C;" d="M1189.739,1558.163l-101.151,0.046c-8.14,0.003-14.741-6.593-14.745-14.732l-0.018-44.412
									c-0.003-8.139,6.592-14.74,14.731-14.744l101.152-0.045c8.14-0.004,14.741,6.592,14.745,14.732l0.018,44.411
									C1204.474,1551.559,1197.879,1558.159,1189.739,1558.163z"/>
								<path style="fill:#3B3B3B;" d="M1079.019,1548.537l-0.017-43.642c-0.004-8.352,6.424-15.126,14.354-15.129l101.905-0.046
									c2.622-0.001,4.948,0.941,7.065,2.233c-2.487-4.508-6.934-7.681-12.242-7.678l-101.902,0.045
									c-7.933,0.004-14.359,6.778-14.356,15.131l0.018,43.64c0.002,5.59,3.017,10.269,7.301,12.885
									C1079.917,1553.747,1079.021,1551.299,1079.019,1548.537z"/>
							</g>
							<g>
								<path style="fill:#C2C2C2;" d="M1195.022,1668.829l-101.152,0.045c-8.14,0.004-14.741-6.592-14.744-14.732l-0.018-44.412
									c-0.003-8.14,6.592-14.74,14.731-14.744l101.152-0.045c8.14-0.004,14.741,6.592,14.744,14.731l0.018,44.412
									C1209.757,1662.225,1203.161,1668.825,1195.022,1668.829z"/>
								<path style="fill:#5A818C;" d="M1189.782,1663.316l-101.152,0.046c-8.14,0.003-14.741-6.593-14.744-14.733l-0.018-44.412
									c-0.003-8.139,6.592-14.74,14.731-14.744l101.152-0.045c8.14-0.004,14.741,6.592,14.744,14.731l0.018,44.412
									C1204.517,1656.711,1197.921,1663.312,1189.782,1663.316z"/>
								<path style="fill:#3B3B3B;" d="M1079.062,1653.688l-0.018-43.641c-0.003-8.352,6.425-15.126,14.355-15.129l101.905-0.046
									c2.622-0.001,4.947,0.94,7.065,2.232c-2.487-4.508-6.934-7.681-12.242-7.678l-101.902,0.045
									c-7.933,0.004-14.359,6.778-14.356,15.131l0.018,43.64c0.002,5.59,3.017,10.269,7.301,12.885
									C1079.959,1658.899,1079.063,1656.451,1079.062,1653.688z"/>
							</g>
							<g>
								<path style="fill:#C2C2C2;" d="M1362.631,1458.449l-101.152,0.045c-8.14,0.004-14.741-6.592-14.745-14.731l-0.018-44.412
									c-0.003-8.14,6.592-14.74,14.731-14.744l101.151-0.045c8.14-0.004,14.741,6.592,14.745,14.731l0.018,44.412
									C1377.365,1451.845,1370.771,1458.445,1362.631,1458.449z"/>
								<path style="fill:#5A818C;" d="M1357.391,1452.936l-101.152,0.045c-8.14,0.004-14.741-6.592-14.745-14.731l-0.018-44.412
									c-0.003-8.14,6.592-14.74,14.731-14.744l101.151-0.045c8.14-0.004,14.741,6.592,14.744,14.731l0.019,44.412
									C1372.125,1446.331,1365.53,1452.932,1357.391,1452.936z"/>
								<path style="fill:#3B3B3B;" d="M1246.67,1443.309l-0.017-43.641c-0.004-8.352,6.425-15.126,14.354-15.129l101.905-0.046
									c2.622-0.001,4.947,0.94,7.065,2.232c-2.487-4.508-6.934-7.681-12.241-7.679l-101.902,0.047
									c-7.933,0.003-14.36,6.777-14.356,15.13l0.018,43.64c0.002,5.59,3.017,10.27,7.302,12.885
									C1247.568,1448.52,1246.671,1446.072,1246.67,1443.309z"/>
							</g>
							<g>
								<path style="fill:#C2C2C2;" d="M1362.673,1563.602l-101.151,0.045c-8.14,0.004-14.741-6.592-14.745-14.731l-0.018-44.412
									c-0.003-8.14,6.592-14.74,14.732-14.744l101.152-0.046c8.14-0.003,14.74,6.593,14.744,14.732l0.018,44.412
									C1377.408,1556.997,1370.813,1563.598,1362.673,1563.602z"/>
								<path style="fill:#5A818C;" d="M1357.433,1558.088l-101.151,0.045c-8.14,0.004-14.741-6.592-14.745-14.731l-0.018-44.412
									c-0.003-8.14,6.592-14.74,14.731-14.744l101.151-0.045c8.141-0.004,14.742,6.592,14.745,14.731l0.018,44.412
									C1372.168,1551.483,1365.572,1558.084,1357.433,1558.088z"/>
								<path style="fill:#3B3B3B;" d="M1246.712,1548.461l-0.018-43.641c-0.003-8.352,6.425-15.126,14.355-15.129l101.905-0.046
									c2.622-0.001,4.947,0.941,7.065,2.233c-2.488-4.508-6.934-7.681-12.242-7.679l-101.902,0.046
									c-7.933,0.004-14.359,6.778-14.356,15.131l0.018,43.64c0.002,5.59,3.017,10.269,7.301,12.885
									C1247.61,1553.672,1246.714,1551.224,1246.712,1548.461z"/>
							</g>
							<g>
								<path style="fill:#C2C2C2;" d="M1362.716,1668.754l-101.152,0.045c-8.14,0.004-14.741-6.592-14.744-14.732l-0.018-44.412
									c-0.003-8.14,6.592-14.74,14.731-14.744l101.152-0.046c8.14-0.003,14.741,6.593,14.744,14.732l0.018,44.412
									C1377.45,1662.149,1370.854,1668.75,1362.716,1668.754z"/>
								<path style="fill:#5A818C;" d="M1357.476,1663.24l-101.152,0.045c-8.14,0.004-14.742-6.592-14.745-14.731l-0.018-44.412
									c-0.004-8.14,6.592-14.74,14.731-14.744l101.152-0.045c8.14-0.004,14.741,6.592,14.744,14.731l0.019,44.412
									C1372.21,1656.636,1365.614,1663.236,1357.476,1663.24z"/>
								<path style="fill:#3B3B3B;" d="M1246.755,1653.613l-0.018-43.641c-0.003-8.352,6.425-15.126,14.354-15.129l101.905-0.046
									c2.622-0.001,4.947,0.94,7.065,2.232c-2.487-4.509-6.935-7.681-12.242-7.679l-101.902,0.046
									c-7.933,0.004-14.359,6.778-14.356,15.131l0.018,43.64c0.002,5.59,3.017,10.269,7.301,12.885
									C1247.653,1658.824,1246.756,1656.376,1246.755,1653.613z"/>
							</g>
							<g>
								<path style="fill:#C2C2C2;" d="M1362.758,1773.906l-101.151,0.045c-8.14,0.004-14.742-6.592-14.745-14.731l-0.018-44.412
									c-0.003-8.14,6.592-14.74,14.731-14.744l101.151-0.046c8.14-0.003,14.741,6.593,14.745,14.732l0.018,44.412
									C1377.492,1767.302,1370.897,1773.902,1362.758,1773.906z"/>
								<path style="fill:#F7CC7F;" d="M1357.518,1768.393l-101.152,0.045c-8.14,0.004-14.741-6.592-14.745-14.731l-0.018-44.412
									c-0.003-8.14,6.592-14.74,14.731-14.744l101.151-0.045c8.14-0.004,14.741,6.592,14.745,14.732l0.018,44.412
									C1372.252,1761.788,1365.656,1768.389,1357.518,1768.393z"/>
								<path style="fill:#3B3B3B;" d="M1246.797,1758.766l-0.018-43.641c-0.003-8.351,6.425-15.126,14.354-15.129l101.905-0.046
									c2.622-0.001,4.948,0.941,7.065,2.232c-2.487-4.508-6.934-7.681-12.241-7.679l-101.902,0.046
									c-7.933,0.004-14.359,6.778-14.357,15.131l0.018,43.64c0.002,5.59,3.018,10.27,7.302,12.885
									C1247.695,1763.977,1246.798,1761.528,1246.797,1758.766z"/>
							</g>
							<g>
								<path style="fill:#C2C2C2;" d="M1530.324,1458.374l-101.151,0.045c-8.14,0.004-14.741-6.592-14.745-14.731l-0.018-44.412
									c-0.003-8.14,6.592-14.74,14.731-14.744l101.151-0.045c8.14-0.004,14.741,6.592,14.745,14.731l0.018,44.412
									C1545.059,1451.77,1538.464,1458.37,1530.324,1458.374z"/>
								<path style="fill:#5A818C;" d="M1525.084,1452.86l-101.151,0.046c-8.14,0.003-14.741-6.593-14.745-14.732l-0.018-44.412
									c-0.003-8.14,6.592-14.74,14.731-14.744l101.151-0.045c8.14-0.004,14.741,6.592,14.745,14.731l0.018,44.412
									C1539.818,1446.256,1533.224,1452.856,1525.084,1452.86z"/>
								<path style="fill:#3B3B3B;" d="M1414.363,1443.233l-0.018-43.641c-0.003-8.352,6.425-15.126,14.355-15.13l101.904-0.045
									c2.622-0.001,4.948,0.94,7.065,2.232c-2.487-4.508-6.934-7.681-12.241-7.679l-101.902,0.046
									c-7.933,0.004-14.359,6.777-14.356,15.131l0.018,43.64c0.003,5.59,3.018,10.269,7.302,12.885
									C1415.262,1448.444,1414.365,1445.996,1414.363,1443.233z"/>
							</g>
							<g>
								<path style="fill:#D4D4D4;" d="M1208.085,1316.154l-101.662,0.043c-5.167,0.003-9.357-4.184-9.359-9.351l-0.006-13.6
									c-0.002-5.167,4.185-9.357,9.352-9.359l101.661-0.044c5.167-0.002,9.357,4.186,9.36,9.352l0.005,13.6
									C1217.439,1311.962,1213.252,1316.152,1208.085,1316.154z"/>
								<path style="fill:#486670;" d="M1203.257,1313.744l-101.661,0.044c-5.167,0.002-9.357-4.185-9.36-9.351l-0.005-13.6
									c-0.002-5.167,4.185-9.357,9.351-9.359l101.662-0.043c5.167-0.003,9.357,4.185,9.359,9.352l0.006,13.599
									C1212.611,1309.552,1208.424,1313.742,1203.257,1313.744z"/>
							</g>
							<g>
								<path style="fill:#D4D4D4;" d="M1362.613,1316.089l-101.661,0.043c-5.167,0.003-9.357-4.185-9.359-9.352l-0.006-13.599
									c-0.002-5.168,4.185-9.357,9.352-9.36l101.661-0.043c5.167-0.002,9.357,4.184,9.359,9.351l0.006,13.6
									C1371.968,1311.896,1367.78,1316.087,1362.613,1316.089z"/>
								<path style="fill:#486670;" d="M1357.786,1313.679l-101.662,0.044c-5.167,0.002-9.357-4.186-9.359-9.352l-0.006-13.6
									c-0.002-5.167,4.185-9.357,9.352-9.359l101.662-0.044c5.167-0.002,9.356,4.185,9.359,9.352l0.006,13.6
									C1367.14,1309.486,1362.953,1313.677,1357.786,1313.679z"/>
							</g>
							<g>
								<path style="fill:#D4D4D4;" d="M1517.142,1316.024l-101.661,0.043c-5.167,0.002-9.357-4.184-9.359-9.352l-0.006-13.599
									c-0.002-5.167,4.184-9.358,9.351-9.359l101.661-0.043c5.167-0.002,9.357,4.185,9.359,9.352l0.006,13.6
									C1526.496,1311.83,1522.309,1316.021,1517.142,1316.024z"/>
								<path style="fill:#486670;" d="M1512.314,1313.613l-101.662,0.043c-5.166,0.002-9.356-4.185-9.359-9.352l-0.006-13.6
									c-0.002-5.166,4.186-9.356,9.352-9.359l101.662-0.043c5.167-0.002,9.357,4.184,9.359,9.351l0.006,13.6
									C1521.668,1309.421,1517.481,1313.611,1512.314,1313.613z"/>
							</g>
							<g>
								<path style="fill:#C2C2C2;" d="M1530.366,1563.526l-101.151,0.045c-8.14,0.004-14.741-6.592-14.744-14.731l-0.019-44.412
									c-0.003-8.14,6.593-14.74,14.731-14.744l101.152-0.046c8.14-0.003,14.741,6.593,14.744,14.732l0.018,44.412
									C1545.102,1556.922,1538.506,1563.522,1530.366,1563.526z"/>
								<path style="fill:#5A818C;" d="M1525.126,1558.013l-101.151,0.045c-8.14,0.004-14.741-6.592-14.744-14.731l-0.019-44.412
									c-0.003-8.14,6.593-14.74,14.731-14.744l101.152-0.045c8.14-0.004,14.741,6.592,14.744,14.731l0.018,44.412
									C1539.861,1551.408,1533.266,1558.009,1525.126,1558.013z"/>
								<path style="fill:#3B3B3B;" d="M1414.406,1548.386l-0.018-43.641c-0.004-8.352,6.425-15.126,14.354-15.129l101.905-0.046
									c2.622-0.002,4.947,0.939,7.065,2.233c-2.488-4.508-6.935-7.681-12.242-7.679l-101.902,0.046
									c-7.933,0.004-14.359,6.777-14.357,15.131l0.018,43.64c0.003,5.59,3.018,10.268,7.302,12.885
									C1415.304,1553.597,1414.407,1551.149,1414.406,1548.386z"/>
							</g>
							<g>
								<path style="fill:#C2C2C2;" d="M1530.409,1668.679l-101.152,0.045c-8.14,0.004-14.741-6.592-14.744-14.732l-0.018-44.412
									c-0.004-8.14,6.592-14.74,14.731-14.744l101.151-0.046c8.14-0.003,14.741,6.593,14.744,14.732l0.019,44.412
									C1545.144,1662.074,1538.548,1668.675,1530.409,1668.679z"/>
								<path style="fill:#5A818C;" d="M1525.169,1663.165l-101.152,0.045c-8.14,0.004-14.741-6.592-14.744-14.731l-0.018-44.412
									c-0.004-8.14,6.592-14.74,14.73-14.744l101.152-0.045c8.14-0.004,14.741,6.592,14.744,14.731l0.018,44.412
									C1539.903,1656.561,1533.308,1663.161,1525.169,1663.165z"/>
								<path style="fill:#3B3B3B;" d="M1414.448,1653.538l-0.018-43.641c-0.003-8.352,6.425-15.126,14.354-15.13l101.905-0.045
									c2.622-0.002,4.947,0.939,7.065,2.232c-2.487-4.509-6.935-7.681-12.242-7.679l-101.902,0.046
									c-7.933,0.004-14.359,6.777-14.355,15.131l0.018,43.64c0.002,5.59,3.017,10.269,7.301,12.885
									C1415.346,1658.749,1414.449,1656.301,1414.448,1653.538z"/>
							</g>
							<g>
								<path style="fill:#C2C2C2;" d="M1195.064,1773.981l-101.152,0.046c-8.14,0.003-14.741-6.593-14.745-14.732l-0.018-44.412
									c-0.003-8.14,6.592-14.74,14.732-14.744l101.151-0.045c8.14-0.004,14.741,6.592,14.745,14.731l0.018,44.412
									C1209.799,1767.377,1203.204,1773.978,1195.064,1773.981z"/>
								<path style="fill:#F47458;" d="M1189.824,1768.468l-101.152,0.046c-8.14,0.003-14.741-6.593-14.745-14.732l-0.018-44.412
									c-0.003-8.139,6.592-14.74,14.731-14.744l101.151-0.045c8.14-0.004,14.741,6.592,14.745,14.732l0.018,44.412
									C1204.559,1761.863,1197.963,1768.464,1189.824,1768.468z"/>
								<path style="fill:#3B3B3B;" d="M1079.104,1758.842l-0.018-43.642c-0.003-8.351,6.425-15.126,14.354-15.129l101.905-0.046
									c2.622-0.001,4.947,0.941,7.065,2.232c-2.487-4.508-6.934-7.681-12.242-7.678l-101.902,0.045
									c-7.933,0.004-14.36,6.778-14.356,15.131l0.017,43.64c0.002,5.59,3.017,10.269,7.302,12.885
									C1080.002,1764.052,1079.105,1761.604,1079.104,1758.842z"/>
							</g>
							<g>
								<path style="fill:#C2C2C2;" d="M1530.451,1773.831l-101.151,0.045c-8.14,0.004-14.741-6.592-14.745-14.731l-0.018-44.412
									c-0.003-8.14,6.592-14.74,14.731-14.744l101.151-0.046c8.14-0.003,14.741,6.593,14.745,14.732l0.018,44.412
									C1545.186,1767.227,1538.591,1773.827,1530.451,1773.831z"/>
								<path style="fill:#50BFA5;" d="M1525.211,1768.317l-101.151,0.045c-8.14,0.004-14.741-6.592-14.745-14.731l-0.018-44.412
									c-0.003-8.14,6.592-14.74,14.731-14.744l101.151-0.045c8.14-0.004,14.741,6.592,14.745,14.732l0.018,44.412
									C1539.945,1761.713,1533.351,1768.313,1525.211,1768.317z"/>
								<path style="fill:#3B3B3B;" d="M1414.49,1758.691l-0.018-43.641c-0.003-8.352,6.425-15.126,14.354-15.129l101.905-0.046
									c2.622-0.002,4.948,0.939,7.065,2.233c-2.487-4.508-6.934-7.681-12.241-7.679l-101.902,0.046
									c-7.933,0.004-14.359,6.777-14.356,15.131l0.018,43.64c0.003,5.59,3.018,10.269,7.302,12.885
									C1415.389,1763.901,1414.492,1761.453,1414.49,1758.691z"/>
							</g>
						</g>
					</g>
				</g>
			</g>
			<g>
				<path style="fill:#13375B;" d="M1775.628,1142.479l-2.762,2.48c-1.421,1.276-3.559,1.223-4.776-0.119l-49.02-54.072
					c-1.217-1.342-1.052-3.465,0.369-4.741l2.762-2.48c1.421-1.277,3.559-1.224,4.776,0.119l49.02,54.071
					C1777.214,1139.079,1777.049,1141.202,1775.628,1142.479z"/>
				<path style="fill:#F7A491;" d="M1941.82,1098.55c-6.552-5.346-57.221,16.963-56.578,24.729s-35.356,83.053-35.356,83.053
					l-62.21-49.773l-0.025,0.016c-0.55-1.8-6.447-21.158-6.734-24.621c-0.301-3.632-10.813-9.988-15.695-9.053
					c-4.883,0.937,4.176,7.082,4.77,8.21c1.619,3.07-4.64,4.223-4.64,4.223s-17.975-9.898-18.356-15.72s-4.092-18.022-7.976-15.471
					c-2.004,1.318-1.985,9.974-1.359,14.081c-1.155-4.662-2.79-9.928-4.382-10.449c-2.908-0.953-4.354,2.759-3.825,4.581
					c0.527,1.822,5.223,21.618,6.649,23.847c1.395,2.176,30.422,25.642,34.604,30.736c0,0,80.466,92.3,86.196,94.715
					c5.026,2.118,22.95-29.689,39.885-50.807C1913.721,1189.731,1962.295,1115.253,1941.82,1098.55z"/>
				<path style="fill:#F48C7F;" d="M2104.182,1777.235c0,0,11.057,10.826,11.309,14.799c0.25,3.974,0.979,46.536-3.535,50.51
					c-4.514,3.973-17.772,6.79-13.51,11.26c3.221,3.378,28.008,2.655,44.435,1.748c4.795-0.265,10.809-38.654,12.708-44.297
					c2.759-8.194,9.466-26.653,6.958-32.364c-1.222-2.783-7.067-8.503-15.304-13.841c-8.665-5.615-16.954-18.117-16.954-18.117
					L2104.182,1777.235z"/>
				<path style="fill:#F7A491;" d="M1989.64,1802.445c0,0,9.896,28.048,9.907,28.12c0.735,4.444,3.633,15.423,3.633,19.462
					c0,15.177-68.21-12.882-52.923-19.607c1.384-0.608,5.724-5.472,6.18-10.637c0.701-7.958-5.746-17.939-5.746-17.939
					L1989.64,1802.445z"/>
				<g>
					<path style="fill:#355389;" d="M1882.636,1280.146c0,0-4.973,50.282-4.973,51.032c0,81.339-16.069,240.222-13.013,255.513
						c7.455,37.3,87.692,227.574,87.692,227.574l43.366-5.201l-56.511-227.813l20.795-91.695l29.427-181.254L1882.636,1280.146z"/>
					<path style="fill:#13375B;" d="M2028.179,1324.621l8.229,47.657l22.263,196.138l84.786,191.694
						c0,0-11.927,27.894-29.521,31.812l-134.942-196.813l-83.823-251.838l2.941-55.95L2028.179,1324.621z"/>
				</g>
				<path style="fill:#86B1F2;" d="M1865.341,1160.426l60.134,6.16c0,0,2.759-49.466,2.759-73.063
					c0-28.627-2.431-65.499-5.876-64.706c-9.67,2.228-22.692,7.584-30.445,18.274
					C1865.084,1084.078,1865.341,1160.426,1865.341,1160.426z"/>
				<path style="fill:#9BC1F9;" d="M1894.883,1088.475c-1.26,8.728-24.377,246.013-24.377,246.013
					c109.492,53.062,169.909,9.452,169.909,9.452s-3.583-166.625,0.712-189.304c2.841-15.006,6.383-114.712-3.307-117.505
					c-12.436-3.583-26.694-7.39-42.235-9.008c-13.267-1.382-64.801-2.182-74.021,0.925
					C1921.563,1029.048,1900.179,1051.77,1894.883,1088.475z"/>
				<path style="fill:#184655;" d="M2146.705,1764.779c0,0-25.484,71.999-35.459,75.475c-2.648,0.923-15.359,3.264-17.757,8.904
					c-0.722,1.699,0,7.373,0,7.373h53.118c0,0,6.719-31.723,9.375-45.661c0,0,14.061-34.055,12.498-37.149
					C2166.918,1770.626,2146.705,1764.779,2146.705,1764.779z"/>
				<path style="fill:#184655;" d="M2007.06,1855.035l-7.812-24.759c0,0-16.404,6.963-24.606,5.803
					c-8.202-1.161-24.216-5.803-24.216-5.803c-32.739,10.812-59.56,16.06-54.682,24.759l0,0H2007.06z"/>
				<g>
					<path style="fill:#F7A491;" d="M1856.902,1261.654c-0.248-0.104-1.14-0.808-1.652-1.231
						c1.947-23.247,1.596-45.772-5.676-53.389c0.175-0.365,1.765-3.755,3.424-7.271c8.427,6.54,12.431,23.914,10.859,52.117
						c-0.107,1.94-0.664,3.42-1.111,5.841C1860.306,1260.415,1858.088,1262.154,1856.902,1261.654z"/>
				</g>
				<path style="fill:#F8A492;" d="M2148.857,1337.001c0.068-0.508,0.077-1.018,0.027-1.527
					c-1.613-16.434-15.211-154.42-17.501-160.286c-2.067-5.296-63.052-92.814-63.052-92.814l-29.974,40.976l58.649,78.498
					c1.315,4.988,22.476,98.137,22.476,98.137s4.337,16.979,6.28,27.149c-0.887,2.45-1.756,4.765-2.526,6.664
					c-1.944,4.058-4.236,7.388-6.319,10.19c-2.622,3.525-6.955,11.229-7.49,13.289c-0.621,2.396-1.74,7.377-2.374,10.383
					c-0.635,3.006-1.503,6.506-1.648,8.137c-0.089,0.993-1.109,2.973-1.895,4.371c-1.171,2.084,0.826,4.543,3.089,3.789
					c2.131-0.711,3.789-3.478,4.812-5.203c2.886-4.867,4.425-13.756,5.143-13.285s3.247,15.55,3.646,17.255
					c0.4,1.705,3.435,19.215,5.146,22.415c1.712,3.2,3.978,2.665,4.578,0.661c0.518-1.725-1.89-26.226-1.89-26.226
					s-0.3-3.125,1.063-2.148c1.364,0.977,3.594,23.217,4.543,26.471s3.111,4.98,4.946,2.364c2.232-3.182-1.606-26.771-1.606-26.771
					s-0.43-2.965,0.833-2.689c1.263,0.275,2.844,19.23,3.826,20.87c0.982,1.639,3.462,2.228,4.646-0.506
					c1.393-3.218-2.215-24.248-2.215-24.248s0.178-1.674,0.965-1.118s3.286,16.617,4.915,18.104
					c1.368,1.249,2.508,0.037,2.508,0.037c2.989-2.047-1.594-17.324-1.548-24.921c0.045-7.597-3.467-16.134-2.42-25.178
					C2148.557,1339.271,2148.74,1337.878,2148.857,1337.001z"/>
				<path style="fill:#9BC1F9;" d="M2115.977,1137.802l-52.093,35.095c0,0-29.36-43.839-45.122-59.446
					c-19.743-19.552,7.192-79.445,19.913-76.057C2067.128,1044.973,2115.977,1137.802,2115.977,1137.802z"/>
				<path style="fill:#F7A491;" d="M1991.756,976.824l7.791,51.532c0,0-28.455,61.356-45.442,56.035
					c-14.253-4.465-5.484-58.755-5.484-58.755s7.769-29.155,5.438-43.745C1951.729,967.301,1991.756,976.824,1991.756,976.824z"/>
				<path style="fill:#F47458;" d="M1954.059,981.891c-2.329-14.589,37.696-5.067,37.696-5.067l0.646,4.274
					c-1.171,2.859-2.603,5.306-4.341,7.182c-8.94,9.655-22.915,15.454-34.998,15.893
					C1954.271,996.305,1955.015,987.873,1954.059,981.891z"/>
				<g>
					<path style="fill:#F7A491;" d="M1998.322,903.921c1.131-0.412,9.068,58.691-5.993,74.953
						c-15.062,16.262-44.405,21.584-54.931,8.777c-11.643-14.167-11.058-77.689,12.358-94.417
						C1973.174,876.504,1998.322,903.921,1998.322,903.921z"/>
					<path style="fill:#184655;" d="M1958.671,861.617c18.1,3.703,29.823,14.802,34.131,19.531
						c8.218,0.974,19.388,5.531,30.923,24.694c14.183,23.563,3.709,49.668-12.801,62.476
						c-16.511,12.809-16.281,27.603-16.281,27.603l-2.609-7.652c-1.926-5.798-2.713-11.944-2.068-18.025
						c0.387-3.648,1.166-7.594,2.671-10.837c3.971-8.553-8.53-14.236-12.035-21.353c-2.698-5.48-2.83-18.016-7.082-27.074
						l-5.078-6.914c0,0-11.716-9.147-23.178-6.566C1933.801,900.081,1935.449,856.866,1958.671,861.617z"/>
					<path style="fill:#F7A491;" d="M1981.371,948.572c-0.119,7.211,3.146,13.114,7.297,13.185
						c4.149,0.071,7.609-5.717,7.729-12.928c0.12-7.211-3.146-13.114-7.296-13.185
						C1984.951,935.573,1981.49,941.361,1981.371,948.572z"/>
				</g>
				<path style="fill:#FFFFFF;" d="M1956.912,965.233l-22.701-1.179c0,0,0.077,8.679,10.045,9.487
					C1956.411,974.526,1956.912,965.233,1956.912,965.233z"/>
			</g>
			<g>
				<polygon style="fill:#0E2E35;" points="489.079,1854.009 475.725,1854.009 525.49,1595.423 536.593,1597.534 				"/>
				<polygon style="fill:#0E2E35;" points="857.29,1852.848 868.392,1850.736 820.421,1595.423 809.319,1597.534 				"/>
				<polygon style="fill:#0E2E35;" points="733.563,1854.009 720.209,1854.009 769.974,1595.423 781.076,1597.534 				"/>
				<polygon style="fill:#0E2E35;" points="610.751,1854.009 621.594,1854.139 573.883,1596.584 562.781,1598.695 				"/>
				<path style="fill:#FAE0B2;" d="M659.188,1247.169c-43.963,4.725-100.856,9.708-157.971,106.962
					c-62.424,106.294-29.564,265.069,19.706,309.19c49.27,44.122,210.186,98.602,345.456,17.043c0,0,81.678-49.426,39.76-131.454
					c-64.506-126.232-55.392-152.556-84.234-202.025S752.508,1237.142,659.188,1247.169z"/>
				<path style="fill:#F7CC7F;" d="M501.218,1354.131c38.983-66.38,77.861-89.769,112.597-99.436
					c-13.436,13.951-27.057,31.898-40.69,55.114c-62.423,106.293-29.563,265.068,19.706,309.19
					c43.693,39.128,175.189,86.385,298.737,39.704c-12.703,14.104-25.188,21.66-25.188,21.66
					c-135.27,81.558-296.186,27.079-345.456-17.043C471.654,1619.2,438.794,1460.424,501.218,1354.131z"/>
				<g>
					<polygon style="fill:#F79C8D;" points="800.333,1408.729 811.633,1442.744 777.197,1429.153 					"/>
					<path style="fill:#DD513A;" d="M764.833,1307.508c2.296,0.095,8.586,2.2,17.786,19.586
						c11.748,22.202,28.918,89.271,28.918,89.271l-51.252,19.087l-6.584-13.999l-10.844-107.772
						C742.857,1313.68,764.197,1307.481,764.833,1307.508z"/>
					<path style="fill:#F47458;" d="M697.083,1297.841c14.655,0.018,50.918,4.295,67.75,9.672c0,0,12.364,106.271-11.132,187.021
						c-5.26,18.076,4.35,74.933,4.35,74.933l-151.866-2.004c0,0,17.991-137.453,11.213-159.655c-6.778-22.202-6.94-99.58-6.94-99.58
						s1.04-0.162,34.12-5.88C660.009,1299.681,681.436,1297.819,697.083,1297.841z"/>
					<path style="fill:#F7A491;" d="M679.387,1766.709c0,0,3.36,38.776,9.537,49.515c6.178,10.738-0.325,28.994-0.65,31.499
						c-0.325,2.506-13.004,6.085-33.162,3.938c-20.157-2.147-19.832-6.801-18.206-14.317c1.626-7.517,12.355-17.182,13.004-24.34
						c0.651-7.159-6.177-32.931-6.177-32.931L679.387,1766.709z"/>
					<path style="fill:#256653;" d="M740.917,1537.461c0,0,104.833-5.821,128.242,8.356c23.41,14.178-4.233,43.291-4.233,43.291
						s-85.345,37.108-228.227,45.353c-33.835,1.953-36.75-88.222-30.424-95.684C612.602,1531.316,740.917,1537.461,740.917,1537.461
						z"/>
					<path style="fill:#184655;" d="M652.598,1854.671c-20.757-2.212-18.19-12.409-16.516-20.149
						c1.047-4.847,7.002-10.56,10.551-15.965c1.857,1.479,4.874,4.088,13.888,6.75c9.36,2.765,22.192-2.707,30.368-6.135
						c2.914,10.846,3.047,24.678,2.775,26.775C693.329,1848.527,673.354,1856.882,652.598,1854.671z"/>
					<path style="fill:#3C8F7C;" d="M664.055,1612.459c4.188,31.693,24.926,189.471,24.926,189.471l-48.118,5.966
						c0,0-59.171-205.937-56.137-237.436c3.035-31.498,25.184-34.148,25.184-34.148S652.969,1528.562,664.055,1612.459z"/>
					<path style="fill:#F7A491;" d="M608.806,1320.04c14.199-5.327,21.146,122.611,23.059,175.272
						c25.146,2.419,68.974,0.018,79.886-0.801c5.133-0.386,16.967-4.721,22.072-5.389c5.231-0.685,9.973-1.042,12.544-0.595
						c0.944,0.165,27.153,10.883,29.396,13.233c2.781,2.915,10.297,10.268,9.029,13.447c-1.268,3.18-14.458-8.859-14.458-8.859
						l-6.445-3.616c8.024,7.839,23.329,18.162,21.124,21.921c-2.15,3.666-15.956-6.81-25.795-13.95
						c8.439,7.623,18.924,21.264,16.508,23.39c-2.171,1.912-14.097-13.881-26.843-18.429c-4.723-1.685-9.431,2.982-13.146,3.546
						c-2.731,0.414-6.947,1.296-9.626,0.536l-13.8-3.913c-4.701,0.425-4.819,3.206-9.566,4.216
						c-5.511,1.173-14.553,2.408-21.572,4.123c-40.416,9.875-53.896,14.461-66.27,14.453
						C577.422,1538.603,575.249,1332.629,608.806,1320.04z"/>
					<path style="fill:#DD513A;" d="M581.859,1440.151c-2.66-53.939-2.27-120.423,27.967-131.767
						c11.93-4.476,32.963,22.436,29.18,132.862C622.864,1442.58,599.166,1443.653,581.859,1440.151z"/>
					<polygon style="fill:#F79C8D;" points="751.026,1416.976 747.944,1416.976 701.609,1530.843 704.8,1530.356 					"/>
					<path style="fill:#F7A491;" d="M820.093,1799.878c0,0-4.198,13.461,3.32,22.363c7.518,8.901,38.757,17.636,42.857,22.457
						c4.101,4.821,3.79,8.928,3.79,8.928l-87.679-2.413l0.955-26.479l4.038-19.029L820.093,1799.878z"/>
					<path style="fill:#184655;" d="M828.866,1826.68c0,0-22.529,9.113-33.412,3.718c-10.882-5.396-10.554-6.891-13.703-4.879
						c-3.149,2.013-4.277,26.835-4.277,26.835l98.593,2.897c6.861-0.158,10.33-5.21,4.755-9.536
						c-3.822-2.966-8.239-4.951-10.75-6.392C862.361,1834.9,828.866,1826.68,828.866,1826.68z"/>
					<path style="fill:#3C8F7C;" d="M816.769,1562.31c6.776-14.261,22.19-32.828,49.308-21.646
						c25.864,10.666,32.806,36.879,24.646,63.722c-8.16,26.842-61.883,184.636-63.756,206.332l-42.894,0.283
						c0,0,7.795-124.943,9.708-155.143C795.622,1626.798,805.042,1586.991,816.769,1562.31z"/>
					<path d="M886.404,1416.976H743.019c-3.794,0-7.211,2.3-8.65,5.822l-44.149,108.045h-79.049c-2.21,0-4.002,1.796-4.002,4.013
						l0,0c0,2.216,1.792,4.013,4.002,4.013h224.98c6.185,0,11.794-3.643,14.328-9.305l44.455-99.365
						C897.711,1423.991,893.185,1416.976,886.404,1416.976z"/>
					<path style="fill:#FFFFFF;" d="M809.206,1479.891c-0.968,4.852-5.188,8.099-9.423,7.249c-4.236-0.85-6.884-5.473-5.916-10.326
						c0.969-4.854,5.188-8.099,9.423-7.249C807.525,1470.415,810.174,1475.038,809.206,1479.891z"/>
					<g>
						<path style="fill:#0E2E35;" d="M731.158,1168.046c-4.321-1.455-8.577-3.098-12.685-5.079
							c-4.644-2.24-10.662-4.862-14.463-5.449c-8.002-1.235-21.749-0.411-29.341,7.823c-9.458,10.26-26.263,1.854-22.878,55.588
							c3.832,60.821,37.65,54.146,38.472,53.116c0.82-1.029,30.161-38.911,30.161-38.911s10.259,22.441,10.259,21.617
							C730.684,1255.956,783.067,1185.527,731.158,1168.046z"/>
						<path style="fill:#F7A491;" d="M705.484,1278.537l2.919,21.733c0,0,6.541,31.31-1.874,37.347
							c-8.413,6.036-35.779-38.239-35.779-38.239l2.891-55.068L705.484,1278.537z"/>
						<path style="fill:#F47458;" d="M672.707,1262.155c6.95,18.783,23.503,30.329,35.253,34.808l-2.476-18.426l-31.844-34.229
							L672.707,1262.155z"/>
						<path style="fill:#F7A491;" d="M703.756,1184.382c17.828-2.879,33.819,11.46,33.374,29.307
							c-0.194,7.758-0.83,17.444-2.442,27.875c-3.877,25.088-20.993,47.179-32.311,45.206c-11.318-1.973-39.795-23.613-34.78-59.315
							C670.693,1205.413,685.047,1187.401,703.756,1184.382z"/>
						<path style="fill:#F7A491;" d="M675.451,1231.716c-0.955,5.517-5.374,9.354-9.87,8.57c-4.496-0.784-7.367-5.892-6.412-11.408
							c0.955-5.517,5.374-9.354,9.87-8.57C673.535,1221.091,676.406,1226.198,675.451,1231.716z"/>
						<path style="fill:#0E2E35;" d="M669.04,1220.308c0,0,13.684,3.4,18.761-5.401c5.079-8.801,23.237-27.793,46.32-19.919
							c23.083,7.875-20.313-19.146-22.16-19.146c-1.846,0-24.006-0.154-24.006-0.154s-17.081,14.052-17.697,15.596
							c-0.615,1.544-5.539,18.374-5.539,18.374L669.04,1220.308z"/>
					</g>
					<path style="fill:#FFFFFF;" d="M694.074,1257.028l24.899,4.761c0,0-2.376,9.379-13.386,7.604
						C692.163,1267.228,694.074,1257.028,694.074,1257.028z"/>
				</g>
			</g>
		</g>
	</g>
</g>
</svg>
